<?xml version="1.0" encoding="utf-8"?>
<!-- Generator: Adobe Illustrator 21.1.0, SVG Export Plug-In . SVG Version: 6.00 Build 0)  -->
<svg version="1.1" id="レイヤー_1" xmlns="http://www.w3.org/2000/svg" xmlns:xlink="http://www.w3.org/1999/xlink" x="0px"
	 y="0px" viewBox="0 0 201.5 40.3" style="enable-background:new 0 0 201.5 40.3;" xml:space="preserve">
<style type="text/css">
	.st0{fill:#040000;}
</style>
<g>
	<path class="st0" d="M134.5,7.4h1V0.1h-1.5c-0.2,0-0.3,0-0.4,0.2l-1.1,2.3h-0.1V0h1.3h5h1.3v2.6h-0.1L139,0.3
		c-0.1-0.2-0.1-0.2-0.4-0.2h-1.5v7.3h1v0.1L134.5,7.4L134.5,7.4z"/>
	<path class="st0" d="M140.7,5c0-1.4,1-2.6,2.7-2.6c1.7,0,2.7,1.2,2.7,2.6c0,1.4-1,2.6-2.7,2.6C141.7,7.6,140.7,6.4,140.7,5z
		 M144.6,6.2c0-0.4-0.1-0.9-0.3-1.6c-0.3-1.3-0.8-2.1-1.4-2.1c-0.4,0-0.9,0.3-0.9,1.2c0,0.4,0.1,0.9,0.3,1.6
		c0.3,1.3,0.7,2.1,1.4,2.1C144.2,7.5,144.6,7.2,144.6,6.2z"/>
	<path class="st0" d="M147.4,0.1h-0.7V0h2.2v4.5l1.7-2h1.7l-0.9,1h-1.6l-1,1.1h1.6l2.3,2.9H151l-2.1-2.7v2.7h-1.5V0.1z"/>
	<path class="st0" d="M153.8,9.4c0-0.5,0.5-1,1.8-0.9l0.4-0.8l-2.3-5h-0.6V2.5h2.9v0.1h-0.6l1.5,3.3l1.5-3.3h-1.1V2.5h1.9v0.1h-0.7
		l-2.9,6.3c-0.3,0.7-0.5,1.1-1.1,1.1C154.1,10,153.8,9.7,153.8,9.4z"/>
	<path class="st0" d="M159.2,5c0-1.4,1-2.6,2.7-2.6c1.7,0,2.7,1.2,2.7,2.6c0,1.4-1,2.6-2.7,2.6C160.2,7.6,159.2,6.4,159.2,5z
		 M163.2,6.2c0-0.4-0.1-0.9-0.3-1.6c-0.3-1.3-0.8-2.1-1.4-2.1c-0.4,0-0.9,0.3-0.9,1.2c0,0.4,0.1,0.9,0.3,1.6
		c0.3,1.3,0.7,2.1,1.4,2.1C162.8,7.5,163.2,7.2,163.2,6.2z"/>
	<path class="st0" d="M133,22.5h0.9v-7.3H133v-0.1h3.1c2.1,0,3.4,0.4,3.4,1.8c0,1.1-1,1.7-2.6,1.8v0c1,0.1,1.5,0.7,2,1.4l2,2.4h-2
		l-2.9-3.8h-0.4v3.7h1v0.1L133,22.5L133,22.5z M136.1,18.7c1.2,0,1.7-0.7,1.7-1.8c0-1-0.5-1.8-1.7-1.8h-0.5v3.5H136.1z"/>
	<path class="st0" d="M141.2,20.1c0-1.5,1.2-2.6,2.5-2.6c0.9,0,2,0.4,2.3,1.6h-3.5c0,0.1,0,0.2,0,0.2c0,1.4,0.7,2.3,1.9,2.3
		c0.7,0,1.5-0.3,1.8-1.5h0.1c-0.2,1.9-1.2,2.5-2.5,2.5C142.3,22.7,141.2,21.8,141.2,20.1z M142.5,19h1.2c0.6,0,0.8-0.2,0.8-0.6
		c0-0.4-0.3-0.9-0.8-0.9C143,17.6,142.6,18.1,142.5,19z"/>
	<path class="st0" d="M147.2,21.4c0-0.9,0.9-1,1.8-1.5c0.3-0.2,0.6-0.3,0.7-0.5c0.2-0.2,0.3-0.4,0.3-0.7c0-0.6-0.3-1.1-0.8-1.1
		c-0.5,0-0.9,0.3-0.7,1.6c-0.1,0.2-0.4,0.3-0.6,0.3c-0.4,0-0.8-0.2-0.8-0.5c0-0.4,0.4-0.7,0.8-0.9c0.5-0.3,1.1-0.7,1.9-0.7
		c0.8,0,1.6,0.3,1.6,1.6v3.5h0.7v0.1h-2.1l-0.1-0.9c-0.2,0.7-0.7,1.1-1.3,1.1C147.9,22.7,147.2,22.2,147.2,21.4z M150.1,21.3l0-2
		c-0.1,0.1-0.2,0.2-0.3,0.3c-0.5,0.4-1,0.8-1,1.4c0,0.7,0.3,1.2,0.7,1.2C149.8,22.2,150.1,21.8,150.1,21.3z"/>
	<path class="st0" d="M153.1,22.5h0.7v-7.3h-0.7v-0.1h2.2v7.4h0.7v0.1L153.1,22.5L153.1,22.5z"/>
	<path class="st0" d="M133.9,34.9v-4.5H133v-0.1h2.5v4.5c0,1.8,0.7,2.6,2.2,2.6c1.3,0,2.3-0.6,2.3-2.5v-4.6h1.1v0.1h-1v4.5
		c0,2-0.9,3-3,3C135.1,37.9,133.9,37,133.9,34.9z"/>
	<path class="st0" d="M141.3,37.6h0.7V34l-0.7-0.5v0l2.2-0.9v1.1c0.2-0.7,0.8-1.1,1.5-1.1c0.9,0,1.5,0.6,1.5,1.8v3.2h0.7v0.1h-2.8
		v-0.1h0.6v-3.2c0-1-0.3-1.4-0.8-1.4c-0.5,0-0.8,0.4-0.8,1.4v3.2h0.6v0.1L141.3,37.6L141.3,37.6z"/>
	<path class="st0" d="M151.5,30.4h-0.9v-0.1h2.4v7.4h0.7v0.1h-2.2v-0.9c-0.2,0.6-0.8,1-1.5,1c-1,0-2.1-0.9-2.1-2.6
		c0-1.6,1.1-2.6,2.2-2.6c0.6,0,1.2,0.4,1.4,0.9V30.4z M149.6,35.2c0,1.5,0.5,2.2,1.1,2.2c0.3,0,0.7-0.3,0.8-0.8v-2.8
		c-0.1-0.5-0.5-0.7-0.8-0.7C150.2,33.1,149.6,33.6,149.6,35.2z"/>
	<path class="st0" d="M154.4,35.3c0-1.5,1.2-2.6,2.5-2.6c0.9,0,2,0.4,2.3,1.6h-3.5c0,0.1,0,0.2,0,0.2c0,1.4,0.7,2.3,1.9,2.3
		c0.7,0,1.5-0.3,1.8-1.5h0.1c-0.2,1.9-1.2,2.5-2.5,2.5C155.5,37.9,154.4,36.9,154.4,35.3z M155.7,34.1h1.2c0.6,0,0.8-0.2,0.8-0.6
		c0-0.4-0.3-0.9-0.8-0.9C156.2,32.7,155.8,33.2,155.7,34.1z"/>
	<path class="st0" d="M163.3,37.7h-3.1v-0.1h0.7V34l-0.7-0.5v0l2.2-0.9V34c0.3-0.9,0.8-1.4,1.3-1.4c0.4,0,0.7,0.3,0.7,0.8
		c0,0.5-0.3,0.8-0.6,0.9l-1.1-0.6c0,0-0.3,0.3-0.3,0.6v3.4L163.3,37.7L163.3,37.7z"/>
	<path class="st0" d="M166.6,36l-0.6,0.7l2.2,0.3c1.4,0.2,2.3,0.4,2.3,1.3c0,1.1-1.8,2.1-3.4,2.1c-1.1,0-2.1-0.4-2.1-1.1
		c0-0.5,0.8-0.9,2-1c-0.3-0.1-1.6-0.6-1.8-0.7l1.3-1.6c-0.8-0.3-1.2-0.9-1.2-1.6c0-1,0.8-1.8,2.2-1.8c0.7,0,1.2,0.2,1.6,0.5l0.5-0.9
		h1.6l-0.5,0.9h-1.5c0.4,0.3,0.5,0.7,0.5,1.2c0,1-0.8,1.8-2.2,1.8C167.2,36.1,166.9,36.1,166.6,36z M169.6,38.9
		c0-0.5-0.8-0.7-1.9-0.7c-1.1,0-1.7,0.5-1.7,1c0,0.4,0.4,1,1.3,1C168.3,40.2,169.6,39.7,169.6,38.9z M168.4,35.1
		c0-0.9-0.5-2.4-1.2-2.4c-0.3,0-0.7,0.3-0.7,0.9c0,0.9,0.5,2.4,1.2,2.4C168.1,36,168.4,35.8,168.4,35.1z"/>
	<path class="st0" d="M174.5,37.7h-3.1v-0.1h0.7V34l-0.7-0.5v0l2.2-0.9V34c0.3-0.9,0.8-1.4,1.3-1.4c0.4,0,0.7,0.3,0.7,0.8
		c0,0.5-0.3,0.8-0.6,0.9l-1.1-0.6c0,0-0.3,0.3-0.3,0.6v3.4L174.5,37.7L174.5,37.7z"/>
	<path class="st0" d="M176.4,35.2c0-1.4,1-2.6,2.7-2.6c1.7,0,2.7,1.2,2.7,2.6c0,1.4-1,2.6-2.7,2.6C177.4,37.9,176.4,36.6,176.4,35.2
		z M180.3,36.5c0-0.4-0.1-0.9-0.3-1.6c-0.3-1.3-0.8-2.1-1.4-2.1c-0.4,0-0.9,0.3-0.9,1.2c0,0.4,0.1,0.9,0.3,1.6
		c0.3,1.3,0.7,2.1,1.4,2.1C179.9,37.7,180.3,37.5,180.3,36.5z"/>
	<path class="st0" d="M183.1,36v-3.1h-0.7v-0.1h2.2V36c0,1,0.3,1.4,0.7,1.4c0.5,0,0.8-0.4,0.8-1.4v-3.2h-0.7v-0.1h2.1v4.9h0.7v0.1
		H186v-0.9c-0.1,0.6-0.7,1-1.4,1C183.7,37.9,183.1,37.3,183.1,36z"/>
	<path class="st0" d="M189.1,37.6h0.7V34l-0.7-0.5v0l2.2-0.9v1.1c0.2-0.7,0.8-1.1,1.5-1.1c0.9,0,1.5,0.6,1.5,1.8v3.2h0.7v0.1h-2.8
		v-0.1h0.6v-3.2c0-1-0.3-1.4-0.8-1.4c-0.5,0-0.8,0.4-0.8,1.4v3.2h0.6v0.1L189.1,37.6L189.1,37.6z"/>
	<path class="st0" d="M199.3,30.4h-0.9v-0.1h2.4v7.4h0.7v0.1h-2.2v-0.9c-0.2,0.6-0.8,1-1.5,1c-1,0-2.1-0.9-2.1-2.6
		c0-1.6,1.1-2.6,2.2-2.6c0.6,0,1.2,0.4,1.4,0.9V30.4z M197.4,35.2c0,1.5,0.5,2.2,1.1,2.2c0.3,0,0.7-0.3,0.8-0.8v-2.8
		c-0.1-0.5-0.5-0.7-0.8-0.7C198,33.1,197.4,33.6,197.4,35.2z"/>
	<path class="st0" d="M7.7,39.1h5.3V1.4H5.8L0.3,15.3H0L0,0.9h5.8H32h5.8v14.4h-0.3L32,1.4h-7.1v37.7h5.3v0.5H7.7V39.1z"/>
	<path class="st0" d="M41.6,39.1h4.2V1.4h-4.2V0.9h16.8C71.5,0.9,79,2.9,79,10.2c0,5.8-6.3,8.5-15.6,9v0.1
		c8.6,0.3,11.4,4.1,14.6,8.9l7.4,11.4H71.6L59.3,20.3h-1.5v18.8H62v0.5H41.6V39.1z M58.6,19.8c5.7,0,7.6-3.6,7.6-9.2
		c0-5.6-1.9-9.2-7.6-9.2h-0.8v18.4H58.6z"/>
	<path class="st0" d="M85.9,24.4V1.4h-4.2V0.9h16.1v0.5v20.9c0,8.8,3.1,13.8,11.1,13.8c6.1,0,10.6-3.1,10.6-12.6V1.4V0.9h5.6v0.5h-5
		v22.2c0,10.2-4.3,16.7-17.1,16.7C92.7,40.3,85.9,35.6,85.9,24.4z"/>
</g>
</svg>
