<?xml version="1.0" encoding="utf-8"?>
<!-- Generator: Adobe Illustrator 21.1.0, SVG Export Plug-In . SVG Version: 6.00 Build 0)  -->
<svg version="1.1" id="レイヤー_1" xmlns="http://www.w3.org/2000/svg" xmlns:xlink="http://www.w3.org/1999/xlink" x="0px"
	 y="0px" viewBox="0 0 404.3 127.3" style="enable-background:new 0 0 404.3 127.3;" xml:space="preserve">
<g>
	<path d="M24.9,123.5h17V1.7H18.9L1,46.6H0L0.1,0h18.8h84.5h18.8v46.6h-1.1L103.5,1.7H80.4v121.9h17v1.7H24.9V123.5z"/>
	<path d="M134.7,123.5h13.7V1.7h-13.7V0h54.2c42.4,0,66.7,6.3,66.7,29.9c0,18.8-20.5,27.6-50.4,29.2v0.3c27.9,0.8,37,13.2,47.2,28.9
		l23.9,36.8h-44.7l-39.8-62.4h-5v60.8h13.7v1.7h-65.9V123.5z M189.5,61.1c18.3,0,24.4-11.6,24.4-29.7c0-18.2-6.1-29.7-24.4-29.7
		h-2.6v59.4H189.5z"/>
	<path d="M277.6,75.8V1.7h-13.7V0h52.2v1.7v67.7c0,28.4,10.1,44.7,35.8,44.7c19.8,0,34.3-10.1,34.3-40.8V1.7V0h18v1.7h-16v71.7
		c0,32.9-13.9,54-55.3,54C299.8,127.3,277.6,112,277.6,75.8z"/>
</g>
</svg>
